<?xml version="1.0" encoding="UTF-8"?>
<svg width="361px" height="63px" viewBox="0 0 361 63" version="1.1" xmlns="http://www.w3.org/2000/svg" xmlns:xlink="http://www.w3.org/1999/xlink">
    <!-- Generator: Sketch 49 (51002) - http://www.bohemiancoding.com/sketch -->
    <title>Full-Logo</title>
    <desc>Created with Sketch.</desc>
    <defs>
        <polygon id="path-1" points="360 62.5 0 62.5 0 50.5 360 50.5"></polygon>
    </defs>
    <g id="Symbols" stroke="none" stroke-width="1" fill="none" fill-rule="evenodd">
        <g id="Header" transform="translate(-692.000000, -5.000000)">
            <g id="Full-Logo" transform="translate(692.500000, 5.000000)">
                <g id="Group">
                    <polygon id="Fill-1" fill="#800000" points="26 0.5 26 5.58334088 26 38.1985234 26 43.4992209 26 43.5 31.2600511 43.5 31.2600511 43.4992209 38.9206518 43.4992209 45.5209699 43.4992209 59 43.4992209 59 38.1985234 31.2600511 38.1985234 31.2600511 26.6645982 31.2600511 18.0638192 31.2600511 5.58334088 38.7989539 5.58334088 45.3380255 5.58334088 58.6889944 5.58334088 58.6889944 0.5"></polygon>
                    <polygon id="Fill-2" fill="#1C9AD6" points="1 23.5 1 43.5 6 43.5 6 35.6702716 6 31.6701179 6 23.5"></polygon>
                    <polygon id="Fill-3" fill="#213368" points="18 6.5 18 43.5 23 43.5 23 29.0150539 23 21.6141125 23 6.5"></polygon>
                    <polygon id="Fill-4" fill="#213368" points="52.9572047 8.5 52.9572047 19.4006112 39.043594 19.4006112 39.043594 8.51355302 34 8.51355302 34 35.5 39.043594 35.5 39.043594 24.9334308 39.043594 24.6129418 44.8259567 24.6129418 49.0269551 24.6129418 52.9572047 24.6129418 52.9572047 35.4848525 58 35.4848525 58 24.9198778 58 19.5225884 58 8.5"></polygon>
                    <polygon id="Fill-5" fill="#2A5CAA" points="9 14.5 9 43.5 14 43.5 14 32.1463381 14 26.3463381 14 14.5"></polygon>
                    <polygon id="Fill-6" fill="#2A5CAA" points="42 16.5 50 16.5 50 8.5 42 8.5"></polygon>
                    <polygon id="Fill-7" fill="#2A5CAA" points="42 35.5 50 35.5 50 27.5 42 27.5"></polygon>
                    <path d="M339.243689,37.9693907 L360,37.9693907 L360,35.8477282 L341.57404,35.8477282 L341.57404,7.03060928 L339.243689,7.03060928 L339.243689,37.9693907 Z M313.810961,37.9693907 L334.567272,37.9693907 L334.567272,35.8477282 L316.142098,35.8477282 L316.142098,7.03060928 L313.810961,7.03060928 L313.810961,37.9693907 Z M285.101913,27.2293941 L293.395638,9.32888335 L301.644579,27.2293941 L285.101913,27.2293941 Z M277.705444,37.9693907 L280.12615,37.9693907 L284.115089,29.3061291 L302.630617,29.3061291 L306.621128,37.9693907 L309.176186,37.9693907 L294.560814,6.80907022 L292.319245,6.80907022 L277.705444,37.9693907 Z M248.345847,37.9693907 L250.676984,37.9693907 L250.676984,23.4725255 L270.760746,23.4725255 L270.760746,37.9693907 L273.092669,37.9693907 L273.092669,7.03060928 L270.760746,7.03060928 L270.760746,21.350863 L250.676984,21.350863 L250.676984,7.03060928 L248.345847,7.03060928 L248.345847,37.9693907 Z M201.722322,37.9693907 L203.96389,37.9693907 L203.96389,10.4776331 L226.0653,37.9693907 L227.814242,37.9693907 L227.814242,7.03060928 L225.572673,7.03060928 L225.572673,33.9476048 L203.919106,7.03060928 L201.722322,7.03060928 L201.722322,37.9693907 Z M191.452591,37.9693907 L193.783728,37.9693907 L193.783728,7.03060928 L191.452591,7.03060928 L191.452591,37.9693907 Z M165.742515,24.312205 L165.742515,9.15149718 L174.618435,9.15149718 C180.267533,9.15149718 184.122906,11.7154632 184.122906,16.6210816 L184.122906,16.7101619 C184.122906,21.3067101 180.177965,24.312205 174.34973,24.312205 L165.742515,24.312205 Z M163.411378,37.9693907 L165.742515,37.9693907 L165.742515,26.4330929 L174.215377,26.4330929 C180.760946,26.4330929 186.454043,23.0743749 186.454043,16.5769287 L186.454043,16.4893975 C186.454043,10.521786 181.7022,7.03060928 174.798358,7.03060928 L163.411378,7.03060928 L163.411378,37.9693907 Z M134.702331,27.2293941 L142.996056,9.32888335 L151.244996,27.2293941 L134.702331,27.2293941 Z M127.305076,37.9693907 L129.725781,37.9693907 L133.716292,29.3061291 L152.231035,29.3061291 L156.22076,37.9693907 L158.775818,37.9693907 L144.161231,6.80907022 L141.920448,6.80907022 L127.305076,37.9693907 Z M97.9462643,37.9693907 L100.277401,37.9693907 L100.277401,23.4725255 L120.361164,23.4725255 L120.361164,37.9693907 L122.692301,37.9693907 L122.692301,7.03060928 L120.361164,7.03060928 L120.361164,21.350863 L100.277401,21.350863 L100.277401,7.03060928 L97.9462643,7.03060928 L97.9462643,37.9693907 Z M80.601411,38.5 C86.1601552,38.5 89.746822,36.3341846 93.0632119,33.1079252 L91.4949783,31.6044032 C88.3121553,34.6982039 85.2189007,36.4224904 80.6909795,36.4224904 C73.2041564,36.4224904 67.4207054,30.3231948 67.4207054,22.4996127 L67.4207054,22.4113069 C67.4207054,14.6326523 73.1138023,8.57750962 80.6461953,8.57750962 C85.3532534,8.57750962 88.4912922,10.521786 91.2262729,13.1299049 L92.884075,11.4505459 C89.6564678,8.53335673 86.2945079,6.5 80.6909795,6.5 C71.635137,6.5 65,13.7480453 65,22.4996127 L65,22.5886931 C65,31.4719445 71.635137,38.5 80.601411,38.5 Z" id="Fill-8" fill="#000000"></path>
                    <mask id="mask-2" fill="white">
                        <use xlink:href="#path-1"></use>
                    </mask>
                    <g id="Clip-11"></g>
                    <path d="M353.961992,61.7206022 C350.985831,61.7206022 348.819348,59.36726 348.819348,56.4996213 L348.819348,56.4662943 C348.819348,53.599413 350.951242,51.2786404 353.927404,51.2786404 C356.903566,51.2786404 359.07162,53.6319826 359.07162,56.4996213 L359.07162,56.5329483 C359.07162,59.400587 356.938154,61.7206022 353.961992,61.7206022 Z M353.927404,62.5 C357.574106,62.5 360,59.6656883 360,56.4996213 L360,56.4662943 C360,53.3009847 357.608694,50.5 353.961992,50.5 C350.31529,50.5 347.889396,53.3343117 347.889396,56.4996213 L347.889396,56.5329483 C347.889396,59.6990153 350.280702,62.5 353.927404,62.5 Z M338.12136,62.5 C340.081885,62.5 341.768062,61.6880326 342.851303,60.7594206 L342.851303,56.2837531 L337.966499,56.2837531 L337.966499,57.0798144 L341.991314,57.0798144 L341.991314,60.4110017 C341.11403,61.1237455 339.686478,61.7372657 338.155948,61.7372657 C334.938455,61.7372657 332.995224,59.4998106 332.995224,56.4996213 L332.995224,56.4662943 C332.995224,53.666067 335.04222,51.2786404 337.966499,51.2786404 C339.790243,51.2786404 340.890778,51.8754971 341.836453,52.6715584 L342.421308,52.0247112 C341.217795,51.0635296 339.978906,50.5 338.017595,50.5 C334.422776,50.5 332.066058,53.3668813 332.066058,56.4996213 L332.066058,56.5329483 C332.066058,59.7974815 334.319797,62.5 338.12136,62.5 Z M319.201588,58.2735277 L322.383707,51.5604052 L325.548532,58.2735277 L319.201588,58.2735277 Z M316.362993,62.3007953 L317.292159,62.3007953 L318.822689,59.0521681 L325.92743,59.0521681 L327.45796,62.3007953 L328.438223,62.3007953 L322.83021,50.6158871 L321.97022,50.6158871 L316.362993,62.3007953 Z M307.579936,62.5 C309.712616,62.5 311.089071,61.6880326 312.361762,60.4776557 L311.759612,59.9141261 C310.538804,61.0745124 309.351012,61.7206022 307.614524,61.7206022 C304.741341,61.7206022 302.522191,59.4331566 302.522191,56.4996213 L302.522191,56.4662943 C302.522191,53.5494225 304.707539,51.2786404 307.59723,51.2786404 C309.402894,51.2786404 310.607194,52.0080477 311.656633,52.9858928 L312.293371,52.3564666 C311.054483,51.2619769 309.764499,50.5 307.614524,50.5 C304.139978,50.5 301.593811,53.2184245 301.593811,56.4996213 L301.593811,56.5329483 C301.593811,59.8641356 304.139978,62.5 307.579936,62.5 Z M295.145461,62.3007953 L296.040039,62.3007953 L296.040039,50.6992047 L295.145461,50.6992047 L295.145461,62.3007953 Z M279.486417,62.3007953 L280.380995,62.3007953 L280.380995,56.8639462 L288.0871,56.8639462 L288.0871,62.3007953 L288.981677,62.3007953 L288.981677,50.6992047 L288.0871,50.6992047 L288.0871,56.0693997 L280.380995,56.0693997 L280.380995,50.6992047 L279.486417,50.6992047 L279.486417,62.3007953 Z M269.740392,62.5 C271.873072,62.5 273.249527,61.6880326 274.522217,60.4776557 L273.920853,59.9141261 C272.699259,61.0745124 271.511467,61.7206022 269.77498,61.7206022 C266.901797,61.7206022 264.682646,59.4331566 264.682646,56.4996213 L264.682646,56.4662943 C264.682646,53.5494225 266.867995,51.2786404 269.7569,51.2786404 C271.56335,51.2786404 272.76765,52.0080477 273.817088,52.9858928 L274.453041,52.3564666 C273.214938,51.2619769 271.924954,50.5 269.77498,50.5 C266.299647,50.5 263.754266,53.2184245 263.754266,56.4996213 L263.754266,56.5329483 C263.754266,59.8641356 266.299647,62.5 269.740392,62.5 Z M242.854317,62.3007953 L243.748895,62.3007953 L243.748895,57.0464874 L250.560421,57.0464874 L250.560421,56.2511835 L243.748895,56.2511835 L243.748895,51.4945086 L251.334726,51.4945086 L251.334726,50.6992047 L242.854317,50.6992047 L242.854317,62.3007953 Z M231.310488,61.7206022 C228.334327,61.7206022 226.167059,59.36726 226.167059,56.4996213 L226.167059,56.4662943 C226.167059,53.599413 228.300525,51.2786404 231.276686,51.2786404 C234.252062,51.2786404 236.41933,53.6319826 236.41933,56.4996213 L236.41933,56.5329483 C236.41933,59.400587 234.28665,61.7206022 231.310488,61.7206022 Z M231.276686,62.5 C234.923388,62.5 237.348496,59.6656883 237.348496,56.4996213 L237.348496,56.4662943 C237.348496,53.3009847 234.95719,50.5 231.310488,50.5 C227.663786,50.5 225.238679,53.3343117 225.238679,56.4996213 L225.238679,56.5329483 C225.238679,59.6990153 227.629984,62.5 231.276686,62.5 Z M207.22842,62.3007953 L208.123784,62.3007953 L208.123784,57.6933346 L213.283722,50.6992047 L212.217775,50.6992047 L207.693789,56.9306003 L203.186311,50.6992047 L202.068482,50.6992047 L207.22842,57.7092407 L207.22842,62.3007953 Z M192.669911,62.3007953 L193.564489,62.3007953 L193.564489,51.4945086 L197.761459,51.4945086 L197.761459,50.6992047 L188.472156,50.6992047 L188.472156,51.4945086 L192.669911,51.4945086 L192.669911,62.3007953 Z M182.641678,62.3007953 L183.535469,62.3007953 L183.535469,50.6992047 L182.641678,50.6992047 L182.641678,62.3007953 Z M173.228957,62.466673 C175.551086,62.466673 177.219969,61.173736 177.219969,59.3006059 L177.219969,59.2680364 C177.219969,57.57669 176.049472,56.6155084 173.262759,56.0693997 C170.407657,55.5051127 169.753624,54.7597993 169.753624,53.5327589 L169.753624,53.4994319 C169.753624,52.2898125 170.923336,51.3119674 172.695198,51.3119674 C174.01977,51.3119674 175.15568,51.6770498 176.290803,52.6215679 L176.858365,51.9413937 C175.636771,50.9968756 174.484353,50.533327 172.729786,50.533327 C170.493341,50.533327 168.859046,51.8588336 168.859046,53.5827495 L168.859046,53.6160765 C168.859046,55.372562 170.029544,56.3170801 172.918449,56.8806097 C175.654065,57.4115698 176.324605,58.1235561 176.324605,59.3505965 L176.324605,59.3839235 C176.324605,60.70943 175.086503,61.6880326 173.280053,61.6880326 C171.508978,61.6880326 170.287384,61.140409 168.962811,59.9633592 L168.377955,60.6102064 C169.822801,61.8531528 171.302234,62.466673 173.228957,62.466673 Z M155.340544,56.7154895 L155.340544,51.4945086 L159.452615,51.4945086 C161.636391,51.4945086 162.909081,52.4723537 162.909081,54.030392 L162.909081,54.063719 C162.909081,55.736887 161.41314,56.7154895 159.400732,56.7154895 L155.340544,56.7154895 Z M154.446752,62.3007953 L155.340544,62.3007953 L155.340544,57.4941299 L159.279674,57.4941299 L163.115825,62.3007953 L164.250948,62.3007953 L160.278016,57.3449157 C162.307718,57.0798144 163.804445,55.9694187 163.804445,54.030392 L163.804445,53.9970649 C163.804445,53.168434 163.460135,52.3890362 162.892573,51.84217 C162.170151,51.1468472 160.983145,50.6992047 159.503711,50.6992047 L154.446752,50.6992047 L154.446752,62.3007953 Z M140.772602,62.3007953 L149.425167,62.3007953 L149.425167,61.5054914 L141.66718,61.5054914 L141.66718,56.8480401 L148.565177,56.8480401 L148.565177,56.0519788 L141.66718,56.0519788 L141.66718,51.4945086 L149.339482,51.4945086 L149.339482,50.6992047 L140.772602,50.6992047 L140.772602,62.3007953 Z M129.820704,62.3833554 L130.612304,62.3833554 L135.910595,50.6992047 L134.964134,50.6992047 L130.233405,61.3729407 L125.51997,50.6992047 L124.522414,50.6992047 L129.820704,62.3833554 Z M118.732812,62.3007953 L119.626604,62.3007953 L119.626604,50.6992047 L118.732812,50.6992047 L118.732812,62.3007953 Z M102.558089,62.3007953 L103.418079,62.3007953 L103.418079,51.9913842 L111.898489,62.3007953 L112.569815,62.3007953 L112.569815,50.6992047 L111.709826,50.6992047 L111.709826,60.7927476 L103.400785,50.6992047 L102.558089,50.6992047 L102.558089,62.3007953 Z M91.6454966,62.4825791 C94.5697759,62.4825791 96.5821831,60.70943 96.5821831,57.3782428 L96.5821831,50.6992047 L95.6876052,50.6992047 L95.6876052,57.4774664 C95.6876052,60.2784511 94.1224869,61.7039386 91.6800849,61.7039386 C89.1339181,61.7039386 87.6033881,60.1292369 87.6033881,57.3949063 L87.6033881,50.6992047 L86.7088102,50.6992047 L86.7088102,57.4774664 C86.7088102,60.7260935 88.7558057,62.4825791 91.6454966,62.4825791 Z M65.2240048,62.3007953 L73.8765697,62.3007953 L73.8765697,61.5054914 L66.1185827,61.5054914 L66.1185827,56.8480401 L73.0165801,56.8480401 L73.0165801,56.0519788 L66.1185827,56.0519788 L66.1185827,51.4945086 L73.7908852,51.4945086 L73.7908852,50.6992047 L65.2240048,50.6992047 L65.2240048,62.3007953 Z M49.6192017,62.3007953 L50.5137796,62.3007953 L50.5137796,56.8639462 L58.2198843,56.8639462 L58.2198843,62.3007953 L59.1144622,62.3007953 L59.1144622,50.6992047 L58.2198843,50.6992047 L58.2198843,56.0693997 L50.5137796,56.0693997 L50.5137796,50.6992047 L49.6192017,50.6992047 L49.6192017,62.3007953 Z M39.6216255,62.3007953 L40.5162034,62.3007953 L40.5162034,51.4945086 L44.713173,51.4945086 L44.713173,50.6992047 L35.4246559,50.6992047 L35.4246559,51.4945086 L39.6216255,51.4945086 L39.6216255,62.3007953 Z M18.4984245,62.3007953 L19.3930024,62.3007953 L19.3930024,51.4945086 L23.589972,51.4945086 L23.589972,50.6992047 L14.3014549,50.6992047 L14.3014549,51.4945086 L18.4984245,51.4945086 L18.4984245,62.3007953 Z M2.83859472,58.2735277 L6.02071364,51.5604052 L9.18553844,58.2735277 L2.83859472,58.2735277 Z M0,62.3007953 L0.929166148,62.3007953 L2.45969617,59.0521681 L9.56443699,59.0521681 L11.094967,62.3007953 L12.0752294,62.3007953 L6.46800259,50.6158871 L5.60801294,50.6158871 L0,62.3007953 Z" id="Fill-10" fill="#000000" mask="url(#mask-2)"></path>
                </g>
            </g>
        </g>
    </g>
</svg>