<?xml version="1.0" encoding="utf-8"?>
<!-- Generator: Adobe Illustrator 17.0.0, SVG Export Plug-In . SVG Version: 6.00 Build 0)  -->
<!DOCTYPE svg PUBLIC "-//W3C//DTD SVG 1.1//EN" "http://www.w3.org/Graphics/SVG/1.1/DTD/svg11.dtd">
<svg version="1.1" id="Layer_2" xmlns="http://www.w3.org/2000/svg" xmlns:xlink="http://www.w3.org/1999/xlink" x="0px" y="0px"
	 width="260px" height="87px" viewBox="0 0 260 87" enable-background="new 0 0 260 87" xml:space="preserve">
<g>
	<path fill="#006A71" d="M51.05,68.44c-8.23,0.89-12.62-2.74-12.62-10.77V20.36h7.47v37.32c0,2.82,0.96,4.39,5.15,4.05V68.44z"/>
	<path fill="#006A71" d="M51.45,75.16c4.18,0.34,5.07-1.72,5.07-4.53V33.6h7.48v37.04c0,8.02-4.32,11.73-12.56,10.84
		C51.45,81.48,51.45,75.16,51.45,75.16z M56.46,28.72v-8.37h7.62v8.37H56.46z"/>
	<path fill="#BF311A" d="M95.29,68.37l-1.1-3.57c-2.95,3.29-5.9,4.12-9.88,4.12c-18.86,0-18.73-23.94,2.54-23.94
		c2.19,0,5.28,0.82,7,2.06c0-6.24-3.91-8.23-8.3-8.17c-3.7,0.07-6.66,1.03-9.61,2.82l-2.95-4.46c9.74-8.02,28.2-5.97,28.2,10.02
		v21.13L95.29,68.37L95.29,68.37z M93.92,59.12v-5.9c-2.19-1.51-4.67-1.99-7-1.99c-5.69,0.07-9.26,2.54-9.26,5.56
		c0,3.29,2.67,5.28,8.44,5.28C88.77,62.07,92.07,61.1,93.92,59.12z"/>
	<path fill="#006A71" d="M124.79,26.87c-4.25-0.27-6.58,1.03-6.58,4.12v2.61h6.58v6.38h-6.58v28.4h-7.47V39.97h-3.77V33.6h3.77
		v-2.61c0-7.96,5.97-11.46,14.06-10.63L124.79,26.87L124.79,26.87z"/>
</g>
<g>
	<path fill="none" d="M143.51,82.25c0,0.36,0.19,0.76,0.65,0.76c0.47,0,0.88-0.43,1.02-0.55v-1.15
		C144.78,81.31,143.51,81.31,143.51,82.25z"/>
	<path fill="none" d="M109.49,81.37c0,0.75,0.06,1.6,0.78,1.6c0.46,0,0.86-0.4,1.07-0.53v-2.52c-0.28-0.15-0.57-0.29-1.02-0.29
		C109.56,79.62,109.49,80.5,109.49,81.37z"/>
	<path fill="none" d="M123.62,79.58c-0.8,0-1.05,0.77-1.05,1.66c0,1.02,0.23,1.78,1.05,1.78c0.8,0,1.04-0.72,1.04-1.75
		C124.67,80.39,124.42,79.58,123.62,79.58z"/>
	<path fill="none" d="M181.96,79.58c-0.8,0-1.05,0.77-1.05,1.66c0,1.02,0.23,1.78,1.05,1.78c0.79,0,1.04-0.72,1.04-1.75
		C183,80.39,182.75,79.58,181.96,79.58z"/>
	<path fill="none" d="M167.65,81.37c0,0.75,0.06,1.6,0.78,1.6c0.46,0,0.86-0.4,1.07-0.53v-2.52c-0.29-0.15-0.57-0.29-1.02-0.29
		C167.72,79.62,167.65,80.5,167.65,81.37z"/>
	<path fill="none" d="M159.59,79.58c-0.8,0-1.05,0.77-1.05,1.66c0,1.02,0.23,1.78,1.05,1.78c0.8,0,1.04-0.72,1.04-1.75
		C160.63,80.39,160.39,79.58,159.59,79.58z"/>
	<path fill="none" d="M89.32,82.25c0,0.36,0.19,0.76,0.66,0.76s0.87-0.43,1.01-0.55v-1.15C90.6,81.31,89.32,81.31,89.32,82.25z"/>
	<path fill="none" d="M77.59,56.71c0,3.28,2.67,5.26,8.41,5.26c2.67,0,5.95-0.96,7.8-2.94v-5.88c-2.19-1.51-4.65-1.98-6.97-1.98
		C81.15,51.23,77.59,53.69,77.59,56.71z"/>
	<path fill="none" d="M98.43,82.25c0,0.36,0.19,0.76,0.66,0.76c0.46,0,0.87-0.43,1.01-0.55v-1.15
		C99.71,81.31,98.43,81.31,98.43,82.25z"/>
	<path fill="none" d="M74.57,82.25c0,0.36,0.2,0.76,0.66,0.76c0.46,0,0.87-0.43,1.01-0.55v-1.15
		C75.85,81.31,74.57,81.31,74.57,82.25z"/>
	<path fill="none" d="M203.18,82.25c0,0.36,0.19,0.76,0.65,0.76c0.46,0,0.88-0.43,1.02-0.55v-1.15
		C204.45,81.31,203.18,81.31,203.18,82.25z"/>
	<path fill="none" d="M197.81,81.37c0,0.75,0.06,1.6,0.78,1.6c0.47,0,0.86-0.4,1.07-0.53v-2.52c-0.28-0.15-0.57-0.29-1.01-0.29
		C197.88,79.62,197.81,80.5,197.81,81.37z"/>
	<path fill="none" d="M217.43,79.58c-0.8,0-1.05,0.77-1.05,1.66c0,1.02,0.23,1.78,1.06,1.78c0.79,0,1.03-0.72,1.03-1.75
		C218.48,80.39,218.24,79.58,217.43,79.58z"/>
	<path fill="#BF311A" d="M72.28,82.95c-0.01-0.03-0.01-0.05-0.07-0.05c-0.06,0-0.23,0.11-0.46,0.11c-0.26,0-0.34-0.21-0.36-0.31
		c-0.02-0.11-0.03-0.56-0.03-0.84v-4.77c0-0.05,0-0.11-0.06-0.11c-0.06,0.01-0.03,0-0.11,0.01l-0.45,0.11
		c-0.04,0.01-0.06,0.05-0.06,0.11v4.64c0,0.32,0,1,0.13,1.29c0.11,0.25,0.4,0.43,0.84,0.43c0.33,0,0.76-0.13,0.76-0.22
		c0-0.02-0.01-0.05-0.02-0.06L72.28,82.95z"/>
	<path fill="#BF311A" d="M76.92,82.03v-1.75c0-0.75-0.35-1.25-1.37-1.25c-0.57,0-1.39,0.26-1.39,0.41c0,0.04,0.01,0.07,0.03,0.11
		l0.11,0.32c0.01,0.03,0.03,0.05,0.06,0.05c0.08,0,0.49-0.29,1.09-0.29c0.64,0,0.79,0.29,0.79,0.8v0.32
		c-0.55,0.02-2.34,0.05-2.34,1.56c0,0.8,0.46,1.26,1.16,1.26c0.74,0,1.18-0.5,1.29-0.6c0.05,0.12,0.21,0.6,0.34,0.6
		c0.02,0,0.03-0.01,0.07-0.03l0.35-0.21c0.03-0.02,0.08-0.03,0.08-0.07c0-0.05-0.12-0.22-0.16-0.33
		C76.95,82.67,76.92,82.59,76.92,82.03z M76.24,82.46c-0.14,0.12-0.55,0.55-1.01,0.55c-0.46,0-0.66-0.4-0.66-0.76
		c0-0.94,1.28-0.94,1.67-0.95C76.24,81.31,76.24,82.46,76.24,82.46z"/>
	<path fill="#BF311A" d="M82.55,82.32v-3.18c0-0.04,0-0.11-0.06-0.11c-0.06,0.01-0.03,0-0.11,0.02l-0.45,0.11
		c-0.03,0.01-0.06,0.05-0.06,0.11v3.25c-0.17,0.16-0.74,0.46-1.02,0.46c-0.58,0-0.73-0.34-0.73-0.72v-3.1c0-0.04,0-0.11-0.07-0.11
		c-0.06,0.01-0.03,0-0.11,0.02l-0.45,0.11c-0.03,0.01-0.06,0.05-0.06,0.11v2.96c0,0.64,0.1,1.34,1.31,1.34
		c0.51,0,0.99-0.32,1.24-0.53c0.1,0.21,0.19,0.53,0.33,0.53c0.02,0,0.04-0.01,0.07-0.03l0.35-0.21c0.03-0.02,0.08-0.03,0.08-0.07
		c0-0.05-0.11-0.23-0.17-0.34C82.56,82.73,82.55,82.53,82.55,82.32z"/>
	<path fill="#BF311A" d="M86.84,79.03c-0.52,0-0.84,0.5-1.07,0.75c-0.04-0.2-0.19-0.75-0.35-0.75c-0.01,0-0.05,0.02-0.09,0.05
		L85,79.28c-0.02,0.01-0.05,0.03-0.06,0.09c0,0.03,0.03,0.1,0.1,0.22c0.13,0.22,0.15,0.52,0.15,0.68v3.06
		c0,0.07,0.03,0.11,0.11,0.11h0.46c0.07,0,0.11-0.03,0.11-0.11v-2.95c0.21-0.23,0.53-0.7,0.84-0.7c0.17,0,0.25,0.08,0.29,0.08
		c0.03,0,0.04-0.05,0.05-0.06l0.19-0.46c0.01-0.03,0.03-0.05,0.03-0.07C87.27,79.1,87.04,79.03,86.84,79.03z"/>
	<path fill="#BF311A" d="M91.68,82.03v-1.75c0-0.75-0.35-1.25-1.38-1.25c-0.57,0-1.39,0.26-1.39,0.41c0,0.04,0.01,0.07,0.03,0.11
		l0.11,0.32c0.01,0.03,0.03,0.05,0.06,0.05c0.08,0,0.5-0.29,1.09-0.29c0.64,0,0.79,0.29,0.79,0.8v0.32
		c-0.55,0.02-2.34,0.05-2.34,1.56c0,0.8,0.46,1.26,1.16,1.26c0.74,0,1.18-0.5,1.29-0.6c0.05,0.12,0.21,0.6,0.34,0.6
		c0.02,0,0.03-0.01,0.07-0.03l0.35-0.21c0.03-0.02,0.08-0.03,0.08-0.07c0-0.05-0.13-0.22-0.16-0.33
		C91.7,82.67,91.68,82.59,91.68,82.03z M90.99,82.46c-0.14,0.12-0.55,0.55-1.01,0.55c-0.46,0-0.66-0.4-0.66-0.76
		c0-0.94,1.28-0.94,1.67-0.95L90.99,82.46L90.99,82.46z"/>
	<path fill="#BF311A" d="M100.79,82.03v-1.75c0-0.75-0.35-1.25-1.37-1.25c-0.57,0-1.39,0.26-1.39,0.41c0,0.04,0.01,0.07,0.03,0.11
		l0.11,0.32c0.01,0.03,0.04,0.05,0.06,0.05c0.08,0,0.5-0.29,1.09-0.29c0.64,0,0.79,0.29,0.79,0.8v0.32
		c-0.55,0.02-2.34,0.05-2.34,1.56c0,0.8,0.46,1.26,1.16,1.26c0.74,0,1.18-0.5,1.29-0.6c0.04,0.12,0.21,0.6,0.34,0.6
		c0.01,0,0.03-0.01,0.07-0.03l0.35-0.21c0.03-0.02,0.08-0.03,0.08-0.07c0-0.05-0.13-0.22-0.16-0.33
		C100.81,82.67,100.79,82.59,100.79,82.03z M100.1,82.46c-0.14,0.12-0.55,0.55-1.01,0.55c-0.46,0-0.66-0.4-0.66-0.76
		c0-0.94,1.27-0.94,1.67-0.95L100.1,82.46L100.1,82.46z"/>
	<path fill="#BF311A" d="M105.49,79.03c-0.68,0-1.15,0.38-1.44,0.61c-0.01-0.07-0.11-0.61-0.27-0.61c-0.03,0-0.05,0.03-0.07,0.03
		l-0.4,0.22c-0.04,0.03-0.05,0.05-0.05,0.06c0,0.05,0.07,0.11,0.14,0.38c0.03,0.13,0.03,0.23,0.03,0.53v3.08
		c0,0.07,0.04,0.11,0.11,0.11H104c0.07,0,0.11-0.03,0.11-0.11v-3.16c0.22-0.19,0.6-0.54,1.18-0.54c0.48,0,0.58,0.34,0.58,0.72v2.98
		c0,0.07,0.03,0.11,0.11,0.11h0.47c0.07,0,0.11-0.03,0.11-0.11v-2.96C106.55,79.72,106.48,79.03,105.49,79.03z"/>
	<path fill="#BF311A" d="M112.02,82.03v-4.94c0-0.05,0-0.11-0.07-0.11c-0.06,0.01-0.03,0-0.11,0.01l-0.44,0.11
		c-0.03,0.01-0.06,0.05-0.06,0.11v2.13c-0.24-0.15-0.54-0.3-1.1-0.3c-1.04,0-1.49,1.07-1.49,2.36c0,1.11,0.44,2.18,1.39,2.18
		c0.66,0,1.1-0.38,1.31-0.53c0.03,0.14,0.19,0.53,0.32,0.53c0.02,0,0.03-0.01,0.07-0.03l0.35-0.21c0.03-0.02,0.08-0.03,0.08-0.07
		c0-0.05-0.11-0.22-0.16-0.33C112.02,82.7,112.02,82.43,112.02,82.03z M111.35,82.44c-0.21,0.13-0.61,0.53-1.07,0.53
		c-0.72,0-0.78-0.85-0.78-1.6c0-0.86,0.07-1.74,0.84-1.74c0.45,0,0.74,0.14,1.02,0.29V82.44z"/>
	<path fill="#BF311A" d="M119.1,77.04c-0.3,0-0.54,0.24-0.54,0.54s0.25,0.54,0.54,0.54c0.31,0,0.54-0.25,0.54-0.54
		C119.64,77.28,119.4,77.04,119.1,77.04z"/>
	<path fill="#BF311A" d="M119.37,79.15h-1.27c-0.07,0-0.11,0.03-0.11,0.11v0.34c0,0.07,0.04,0.11,0.11,0.11h0.7v4.05
		c0,0.51-0.01,0.97-0.6,0.97c-0.46,0-0.8-0.24-0.88-0.24c-0.04,0-0.05,0.04-0.07,0.06l-0.16,0.36c-0.01,0.02-0.02,0.05-0.02,0.07
		c0,0.11,0.54,0.35,1.05,0.35c1.09,0,1.36-0.68,1.36-1.4v-4.63C119.49,79.21,119.47,79.15,119.37,79.15z"/>
	<path fill="#BF311A" d="M123.65,79.03c-1.29,0-1.82,1.05-1.82,2.29c0,1.28,0.52,2.25,1.73,2.25c1.3,0,1.83-1.05,1.83-2.3
		C125.4,80.01,124.88,79.03,123.65,79.03z M123.63,83.01c-0.82,0-1.05-0.76-1.05-1.78c0-0.88,0.24-1.66,1.05-1.66
		s1.05,0.8,1.05,1.68C124.67,82.28,124.42,83.01,123.63,83.01z"/>
	<path fill="#BF311A" d="M129.85,79.03c-0.65,0-1.12,0.38-1.4,0.61v-2.55c0-0.05,0-0.11-0.06-0.11c-0.07,0.01-0.04,0-0.11,0.01
		l-0.44,0.11c-0.04,0.01-0.06,0.05-0.06,0.11v6.13c0,0.07,0.03,0.11,0.11,0.11h0.46c0.07,0,0.11-0.03,0.11-0.11v-3.16
		c0.22-0.19,0.62-0.54,1.21-0.54c0.48,0,0.58,0.34,0.58,0.72v2.98c0,0.07,0.04,0.11,0.11,0.11h0.46c0.07,0,0.11-0.03,0.11-0.11
		v-2.96C130.91,79.72,130.84,79.03,129.85,79.03z"/>
	<path fill="#BF311A" d="M135.65,79.03c-0.68,0-1.15,0.38-1.44,0.61c-0.01-0.07-0.11-0.61-0.27-0.61c-0.03,0-0.06,0.03-0.07,0.03
		l-0.4,0.22c-0.04,0.03-0.05,0.05-0.05,0.06c0,0.05,0.07,0.11,0.14,0.38c0.03,0.13,0.03,0.23,0.03,0.53v3.08
		c0,0.07,0.04,0.11,0.11,0.11h0.46c0.07,0,0.11-0.03,0.11-0.11v-3.16c0.23-0.19,0.6-0.54,1.18-0.54c0.48,0,0.58,0.34,0.58,0.72v2.98
		c0,0.07,0.03,0.11,0.11,0.11h0.47c0.07,0,0.11-0.03,0.11-0.11v-2.96C136.71,79.72,136.64,79.03,135.65,79.03z"/>
	<path fill="#BF311A" d="M145.86,82.03v-1.75c0-0.75-0.35-1.25-1.37-1.25c-0.57,0-1.39,0.26-1.39,0.41c0,0.04,0.01,0.07,0.03,0.11
		l0.11,0.32c0.01,0.03,0.04,0.05,0.06,0.05c0.08,0,0.49-0.29,1.09-0.29c0.64,0,0.8,0.29,0.8,0.8v0.32
		c-0.55,0.02-2.34,0.05-2.34,1.56c0,0.8,0.46,1.26,1.16,1.26c0.74,0,1.18-0.5,1.29-0.6c0.04,0.12,0.2,0.6,0.34,0.6
		c0.01,0,0.03-0.01,0.07-0.03l0.34-0.21c0.04-0.02,0.08-0.03,0.08-0.07c0-0.05-0.13-0.22-0.16-0.33
		C145.89,82.67,145.86,82.59,145.86,82.03z M145.18,82.46c-0.14,0.12-0.55,0.55-1.02,0.55c-0.46,0-0.65-0.4-0.65-0.76
		c0-0.94,1.27-0.94,1.67-0.95V82.46z"/>
	<path fill="#BF311A" d="M150.15,79.03c-0.52,0-0.84,0.5-1.07,0.75c-0.03-0.2-0.19-0.75-0.35-0.75c-0.01,0-0.05,0.02-0.09,0.05
		l-0.33,0.21c-0.02,0.01-0.06,0.03-0.07,0.09c0,0.03,0.03,0.1,0.1,0.22c0.13,0.22,0.15,0.52,0.15,0.68v3.06
		c0,0.07,0.03,0.11,0.1,0.11h0.47c0.07,0,0.11-0.03,0.11-0.11v-2.95c0.21-0.23,0.52-0.7,0.84-0.7c0.17,0,0.25,0.08,0.29,0.08
		c0.03,0,0.04-0.05,0.05-0.06l0.19-0.46c0.01-0.03,0.03-0.05,0.03-0.07C150.58,79.1,150.34,79.03,150.15,79.03z"/>
	<path fill="#BF311A" d="M154.54,79.03c-0.68,0-1.15,0.38-1.43,0.61c-0.01-0.07-0.11-0.61-0.28-0.61c-0.03,0-0.05,0.03-0.07,0.03
		l-0.4,0.22c-0.03,0.03-0.04,0.05-0.04,0.06c0,0.05,0.07,0.11,0.14,0.38c0.04,0.13,0.04,0.23,0.04,0.53v3.08
		c0,0.07,0.04,0.11,0.11,0.11h0.46c0.07,0,0.11-0.03,0.11-0.11v-3.16c0.22-0.19,0.6-0.54,1.18-0.54c0.48,0,0.58,0.34,0.58,0.72v2.98
		c0,0.07,0.04,0.11,0.11,0.11h0.46c0.07,0,0.11-0.03,0.11-0.11v-2.96C155.6,79.72,155.53,79.03,154.54,79.03z"/>
	<path fill="#BF311A" d="M159.62,79.03c-1.3,0-1.81,1.05-1.81,2.29c0,1.28,0.52,2.25,1.72,2.25c1.31,0,1.83-1.05,1.83-2.3
		C161.36,80.01,160.85,79.03,159.62,79.03z M159.59,83.01c-0.82,0-1.05-0.76-1.05-1.78c0-0.88,0.24-1.66,1.05-1.66
		s1.05,0.8,1.05,1.68C160.63,82.28,160.39,83.01,159.59,83.01z"/>
	<path fill="#BF311A" d="M165.24,82.95c-0.01-0.03-0.01-0.05-0.07-0.05c-0.06,0-0.23,0.11-0.47,0.11c-0.26,0-0.34-0.21-0.36-0.31
		c-0.02-0.11-0.03-0.56-0.03-0.84v-4.77c0-0.05,0-0.11-0.06-0.11c-0.06,0.01-0.03,0-0.11,0.01l-0.45,0.11
		c-0.04,0.01-0.06,0.05-0.06,0.11v4.64c0,0.32,0,1,0.13,1.29c0.11,0.25,0.4,0.43,0.84,0.43c0.33,0,0.76-0.13,0.76-0.22
		c0-0.02-0.01-0.05-0.02-0.06L165.24,82.95z"/>
	<path fill="#BF311A" d="M170.18,82.03v-4.94c0-0.05,0-0.11-0.07-0.11c-0.06,0.01-0.03,0-0.11,0.01l-0.44,0.11
		c-0.04,0.01-0.06,0.05-0.06,0.11v2.13c-0.24-0.15-0.54-0.3-1.1-0.3c-1.04,0-1.49,1.07-1.49,2.36c0,1.11,0.44,2.18,1.39,2.18
		c0.66,0,1.1-0.38,1.31-0.53c0.03,0.14,0.19,0.53,0.32,0.53c0.02,0,0.04-0.01,0.07-0.03l0.35-0.21c0.03-0.02,0.08-0.03,0.08-0.07
		c0-0.05-0.11-0.22-0.16-0.33C170.18,82.7,170.18,82.43,170.18,82.03z M169.51,82.44c-0.21,0.13-0.61,0.53-1.07,0.53
		c-0.72,0-0.78-0.85-0.78-1.6c0-0.86,0.07-1.74,0.84-1.74c0.45,0,0.73,0.14,1.02,0.29V82.44z"/>
	<path fill="#BF311A" d="M178.05,76.97c-1.11,0-1.24,0.81-1.24,1.48v0.7h-0.63c-0.06,0-0.06,0.05-0.06,0.11v0.34
		c0,0.05,0,0.11,0.06,0.11h0.63v3.63c0,0.07,0.03,0.11,0.1,0.11h0.47c0.07,0,0.11-0.03,0.11-0.11V79.7h1.15
		c0.05,0,0.1-0.03,0.11-0.08l0.12-0.35c0-0.03,0.01-0.05,0.01-0.06c0-0.05-0.05-0.06-0.1-0.06h-1.29v-0.69
		c0-0.52,0.04-0.89,0.54-0.89c0.38,0,0.62,0.19,0.78,0.19c0.03,0,0.05-0.03,0.07-0.05l0.12-0.29c0.02-0.06,0.05-0.1,0.05-0.13
		C179.03,77.15,178.46,76.97,178.05,76.97z"/>
	<path fill="#BF311A" d="M181.99,79.03c-1.29,0-1.81,1.05-1.81,2.29c0,1.28,0.52,2.25,1.72,2.25c1.31,0,1.83-1.05,1.83-2.3
		C183.73,80.01,183.22,79.03,181.99,79.03z M181.96,83.01c-0.82,0-1.05-0.76-1.05-1.78c0-0.88,0.24-1.66,1.05-1.66
		c0.8,0,1.05,0.8,1.05,1.68C183,82.28,182.75,83.01,181.96,83.01z"/>
	<path fill="#BF311A" d="M189.12,82.32v-3.18c0-0.04,0-0.11-0.06-0.11c-0.06,0.01-0.03,0-0.11,0.02l-0.45,0.11
		c-0.03,0.01-0.07,0.05-0.07,0.11v3.25c-0.17,0.16-0.74,0.46-1.01,0.46c-0.58,0-0.74-0.34-0.74-0.72v-3.1c0-0.04,0-0.11-0.06-0.11
		c-0.06,0.01-0.03,0-0.11,0.02l-0.45,0.11c-0.03,0.01-0.06,0.05-0.06,0.11v2.96c0,0.64,0.1,1.34,1.31,1.34
		c0.51,0,0.99-0.32,1.24-0.53c0.1,0.21,0.2,0.53,0.33,0.53c0.02,0,0.04-0.01,0.07-0.03l0.35-0.21c0.03-0.02,0.08-0.03,0.08-0.07
		c0-0.05-0.11-0.23-0.17-0.34C189.12,82.73,189.12,82.53,189.12,82.32z"/>
	<path fill="#BF311A" d="M193.81,79.03c-0.68,0-1.14,0.38-1.43,0.61c-0.01-0.07-0.11-0.61-0.27-0.61c-0.03,0-0.05,0.03-0.07,0.03
		l-0.4,0.22c-0.03,0.03-0.05,0.05-0.05,0.06c0,0.05,0.07,0.11,0.14,0.38c0.04,0.13,0.04,0.23,0.04,0.53v3.08
		c0,0.07,0.03,0.11,0.11,0.11h0.46c0.07,0,0.11-0.03,0.11-0.11v-3.16c0.23-0.19,0.6-0.54,1.18-0.54c0.48,0,0.58,0.34,0.58,0.72v2.98
		c0,0.07,0.04,0.11,0.11,0.11h0.46c0.07,0,0.11-0.03,0.11-0.11v-2.96C194.88,79.72,194.81,79.03,193.81,79.03z"/>
	<path fill="#BF311A" d="M200.35,82.03v-4.94c0-0.05,0-0.11-0.07-0.11c-0.06,0.01-0.03,0-0.11,0.01l-0.44,0.11
		c-0.03,0.01-0.07,0.05-0.07,0.11v2.13c-0.24-0.15-0.54-0.3-1.1-0.3c-1.04,0-1.49,1.07-1.49,2.36c0,1.11,0.44,2.18,1.39,2.18
		c0.66,0,1.1-0.38,1.31-0.53c0.04,0.14,0.2,0.53,0.32,0.53c0.01,0,0.03-0.01,0.07-0.03l0.34-0.21c0.04-0.02,0.08-0.03,0.08-0.07
		c0-0.05-0.11-0.22-0.16-0.33C200.35,82.7,200.35,82.43,200.35,82.03z M199.67,82.44c-0.21,0.13-0.6,0.53-1.07,0.53
		c-0.72,0-0.78-0.85-0.78-1.6c0-0.86,0.07-1.74,0.84-1.74c0.44,0,0.73,0.14,1.01,0.29V82.44z"/>
	<path fill="#BF311A" d="M205.53,82.03v-1.75c0-0.75-0.34-1.25-1.37-1.25c-0.57,0-1.39,0.26-1.39,0.41c0,0.04,0.01,0.07,0.03,0.11
		l0.11,0.32c0.01,0.03,0.04,0.05,0.07,0.05c0.08,0,0.49-0.29,1.09-0.29c0.64,0,0.8,0.29,0.8,0.8v0.32
		c-0.56,0.02-2.34,0.05-2.34,1.56c0,0.8,0.46,1.26,1.16,1.26c0.74,0,1.18-0.5,1.29-0.6c0.05,0.12,0.21,0.6,0.34,0.6
		c0.02,0,0.04-0.01,0.07-0.03l0.35-0.21c0.04-0.02,0.08-0.03,0.08-0.07c0-0.05-0.13-0.22-0.16-0.33
		C205.55,82.67,205.53,82.59,205.53,82.03z M204.85,82.46c-0.14,0.12-0.56,0.55-1.02,0.55c-0.46,0-0.65-0.4-0.65-0.76
		c0-0.94,1.27-0.94,1.67-0.95V82.46z"/>
	<path fill="#BF311A" d="M210.42,82.78c0-0.03-0.03-0.05-0.06-0.05c-0.08,0-0.44,0.24-0.86,0.24c-0.54,0-0.54-0.37-0.54-0.72V79.7
		h1.18c0.05,0,0.1-0.03,0.12-0.08l0.11-0.35c0-0.03,0.01-0.05,0.01-0.06c0-0.05-0.05-0.06-0.1-0.06h-1.33v-1.37
		c0-0.05,0-0.1-0.05-0.1c-0.01,0-0.03,0.01-0.06,0.01l-0.47,0.13c-0.07,0.02-0.1,0.05-0.1,0.11v1.23h-0.67
		c-0.06,0-0.06,0.05-0.06,0.11v0.34c0,0.05,0,0.11,0.06,0.11h0.67v2.54c0,0.34,0,0.73,0.26,1.01c0.13,0.17,0.46,0.32,0.84,0.32
		c0.48,0,1.15-0.25,1.15-0.37c0-0.03-0.01-0.05-0.01-0.09L210.42,82.78z"/>
	<path fill="#BF311A" d="M213.02,77.04c-0.3,0-0.54,0.24-0.54,0.54s0.24,0.54,0.54,0.54c0.31,0,0.54-0.25,0.54-0.54
		C213.56,77.28,213.33,77.04,213.02,77.04z"/>
	<path fill="#BF311A" d="M213.29,79.15h-1.26c-0.07,0-0.11,0.03-0.11,0.11v0.34c0,0.07,0.04,0.11,0.11,0.11h0.7v3.63
		c0,0.07,0.03,0.11,0.11,0.11h0.47c0.07,0,0.11-0.03,0.11-0.11v-4.05C213.4,79.21,213.39,79.15,213.29,79.15z"/>
	<path fill="#BF311A" d="M217.47,79.03c-1.29,0-1.82,1.05-1.82,2.29c0,1.28,0.52,2.25,1.73,2.25c1.3,0,1.83-1.05,1.83-2.3
		C219.21,80.01,218.69,79.03,217.47,79.03z M217.44,83.01c-0.82,0-1.06-0.76-1.06-1.78c0-0.88,0.24-1.66,1.05-1.66
		s1.05,0.8,1.05,1.68C218.48,82.28,218.24,83.01,217.44,83.01z"/>
	<path fill="#BF311A" d="M223.67,79.03c-0.68,0-1.15,0.38-1.44,0.61c-0.01-0.07-0.12-0.61-0.27-0.61c-0.03,0-0.05,0.03-0.07,0.03
		l-0.4,0.22c-0.04,0.03-0.05,0.05-0.05,0.06c0,0.05,0.07,0.11,0.14,0.38c0.03,0.13,0.03,0.23,0.03,0.53v3.08
		c0,0.07,0.04,0.11,0.11,0.11h0.46c0.07,0,0.11-0.03,0.11-0.11v-3.16c0.22-0.19,0.6-0.54,1.18-0.54c0.48,0,0.58,0.34,0.58,0.72v2.98
		c0,0.07,0.03,0.11,0.11,0.11h0.47c0.07,0,0.11-0.03,0.11-0.11v-2.96C224.73,79.72,224.65,79.03,223.67,79.03z"/>
</g>
<g>
	<g>
		<path fill="#006A71" d="M86.6,5.76C85.29,6,63.43,7.85,38.49,24.79C28.78,31.38,18.61,40.26,9,52.22c0,0,40.68-42.31,83.12-45.69
			c0,0,7.9,7.23,10.24,5.45C106.43,8.87,92.35,4.72,86.6,5.76z M100.44,9.66c-1.31,2.13-7.94-3.15-7.94-3.15
			S101.91,7.26,100.44,9.66z"/>
	</g>
</g>
<g>
	<path fill="#006A71" d="M75.18,0.02c-30.9,0.9-66.17,52.2-66.17,52.2s26.5-36.19,49.23-46.43c22.72-10.24,33.4,0.07,33.4,0.07
		S88.03-0.36,75.18,0.02z"/>
</g>
<g>
	<path fill="#388990" d="M38.45,28.07v-3.28c0,0,6.74-4.35,6.99-4.4c0.21-0.03,0.21-0.02,0.48-0.01v2.89L38.45,28.07z"/>
</g>
</svg>
